<?xml version="1.0" standalone="no"?>
<!DOCTYPE svg PUBLIC "-//W3C//DTD SVG 20010904//EN"
 "http://www.w3.org/TR/2001/REC-SVG-20010904/DTD/svg10.dtd">
<svg version="1.0" xmlns="http://www.w3.org/2000/svg"
 width="460.000000pt" height="460.000000pt" viewBox="0 0 460.000000 460.000000"
 preserveAspectRatio="xMidYMid meet">
<metadata>
Created by potrace 1.11, written by Peter Selinger 2001-2013
</metadata>
<g transform="translate(0.000000,460.000000) scale(0.100000,-0.100000)"
fill="#000000" stroke="none">
<path d="M2140 4215 c-12 -13 -20 -30 -17 -37 4 -10 6 -10 6 0 1 18 21 15 21
-4 0 -14 3 -14 15 -4 16 13 20 55 6 64 -4 3 -18 -5 -31 -19z"/>
<path d="M2221 4044 c0 -11 3 -14 6 -6 3 7 2 16 -1 19 -3 4 -6 -2 -5 -13z"/>
<path d="M2220 4016 c0 -2 7 -6 15 -10 8 -3 15 -1 15 4 0 6 -7 10 -15 10 -8 0
-15 -2 -15 -4z"/>
<path d="M2231 3980 c23 -20 23 -20 2 -8 -24 13 -42 4 -46 -23 -4 -23 -18 -40
-28 -34 -5 4 -9 1 -9 -6 0 -6 8 -9 19 -6 15 4 19 0 16 -15 -5 -24 -15 -37 -15
-19 0 7 -4 9 -10 6 -5 -3 -10 -13 -10 -21 0 -12 9 -14 45 -8 39 5 45 4 45 -11
0 -13 -6 -16 -25 -11 -14 4 -25 2 -25 -3 0 -5 -17 -7 -38 -4 -27 4 -42 1 -51
-11 -13 -15 -2 -23 13 -9 10 10 36 13 36 3 0 -13 38 -18 49 -7 8 8 11 8 11 -1
0 -7 -5 -12 -11 -12 -7 0 -9 -9 -6 -22 5 -21 5 -21 -7 -5 -15 19 -41 23 -52 5
-4 -6 -3 -8 3 -5 6 4 13 0 17 -8 3 -8 14 -15 25 -15 15 0 18 -5 13 -22 -3 -12
-7 -17 -10 -10 -2 6 -16 12 -30 11 -15 0 -21 -3 -14 -6 6 -2 10 -8 7 -13 -3
-5 8 -11 24 -15 19 -4 28 -11 25 -20 -3 -7 -14 -11 -26 -7 -16 4 -19 1 -16
-14 2 -10 12 -20 22 -22 11 -3 16 0 12 7 -5 7 -1 8 10 4 11 -4 13 -8 6 -11 -7
-2 -12 -10 -12 -17 0 -8 -7 -11 -19 -8 -15 4 -19 0 -17 -14 2 -10 13 -19 25
-21 15 -3 21 -8 17 -19 -3 -8 -6 -20 -6 -26 0 -7 -5 -4 -11 6 -13 23 -28 22
-22 -2 3 -11 16 -22 29 -25 20 -5 22 -9 12 -20 -11 -12 -14 -12 -21 1 -7 11
-12 12 -23 2 -12 -10 -17 -8 -29 7 -8 10 -15 25 -15 32 0 16 -10 15 -34 -3
-11 -8 -28 -15 -38 -15 -15 0 -16 3 -6 25 6 14 19 25 28 25 20 0 66 37 57 46
-7 7 -35 -8 -38 -21 -2 -5 -9 -9 -15 -7 -7 1 -25 -13 -39 -33 -29 -37 -45 -45
-45 -20 0 17 -16 20 -25 5 -9 -15 -25 -12 -25 5 0 8 -7 15 -15 15 -8 0 -15 -4
-15 -10 0 -5 -4 -10 -10 -10 -5 0 -10 7 -10 15 0 8 -7 15 -15 15 -8 0 -15 -4
-15 -10 0 -5 -4 -10 -10 -10 -5 0 -10 7 -10 16 0 12 -6 15 -24 10 -17 -4 -26
-1 -30 10 -5 13 -9 14 -21 4 -13 -11 -18 -10 -31 6 -11 14 -17 15 -20 7 -8
-18 -24 -16 -24 3 0 12 -6 15 -22 11 -14 -4 -26 0 -35 11 -11 15 -14 15 -22 2
-9 -13 -12 -12 -24 4 -8 11 -19 16 -26 12 -7 -5 -18 0 -26 10 -10 15 -16 16
-28 6 -12 -10 -16 -9 -21 4 -4 11 -13 14 -27 11 -13 -3 -22 0 -26 10 -4 10
-13 13 -29 9 -18 -5 -24 -2 -24 10 0 12 -6 15 -25 10 -20 -5 -25 -3 -25 14 0
11 -7 20 -15 20 -8 0 -15 -5 -15 -11 0 -8 -4 -8 -13 -1 -20 17 -32 0 -33 -48
-1 -43 -9 -129 -19 -215 -3 -22 -7 -58 -9 -80 -2 -22 -8 -60 -12 -84 -4 -26
-3 -46 3 -50 15 -9 27 -71 14 -71 -6 0 -11 9 -11 20 0 22 -15 27 -23 8 -4 -10
-8 -10 -15 1 -15 21 -34 8 -37 -24 -2 -17 -6 -68 -9 -115 -4 -47 -9 -103 -11
-125 -3 -22 -7 -67 -10 -100 -13 -134 -26 -195 -50 -220 -20 -22 -24 -23 -35
-10 -9 11 -16 13 -23 6 -11 -11 -12 -15 -21 -142 -4 -47 -9 -98 -10 -115 -4
-29 -15 -126 -22 -194 -12 -113 -38 -270 -46 -270 -4 0 -8 -11 -8 -25 0 -14
-4 -25 -9 -25 -12 0 -20 49 -10 56 12 7 11 24 -1 24 -6 0 -15 -11 -20 -25 -11
-29 -17 -31 -40 -10 -29 26 -37 -1 -44 -150 -3 -77 -9 -167 -12 -200 -10 -105
-54 -508 -61 -548 l-6 -38 -32 31 c-27 26 -34 29 -44 16 -9 -11 -9 -16 0 -21
6 -4 15 -2 19 5 12 20 22 -7 15 -40 -8 -34 -25 -40 -25 -9 0 17 -4 20 -28 14
-20 -4 -33 -1 -42 10 -27 33 -37 -13 -44 -210 -4 -104 -13 -282 -20 -395 -7
-113 -11 -207 -9 -210 9 -10 20 24 22 68 1 26 6 95 11 153 5 58 12 193 15 300
3 107 8 203 10 215 4 20 5 20 88 -7 124 -42 313 -89 356 -89 31 0 40 5 49 25
7 15 8 25 2 25 -6 0 -10 11 -10 25 0 14 5 25 10 25 6 0 10 5 10 11 0 8 -5 8
-15 -1 -8 -7 -15 -11 -16 -9 -9 49 -9 50 10 39 17 -9 20 -6 23 17 4 40 38 45
38 6 0 -16 -5 -34 -12 -41 -9 -9 -9 -12 2 -12 11 -1 10 -3 -3 -11 -14 -8 -16
-14 -6 -25 9 -11 8 -14 -2 -15 -8 0 -5 -4 6 -9 17 -7 17 -9 3 -9 -22 -1 -24
-21 -3 -21 21 0 19 -40 -2 -55 -16 -12 -16 -15 -2 -32 10 -11 22 -66 33 -148
10 -72 22 -138 27 -147 16 -30 10 -49 -26 -84 -19 -19 -35 -44 -35 -56 0 -19
-2 -20 -10 -8 -8 12 -10 11 -10 -6 0 -12 -9 -33 -21 -48 -17 -22 -18 -27 -5
-32 8 -3 12 -12 9 -20 -12 -31 37 -13 69 26 l34 41 34 -15 c19 -8 71 -19 115
-26 44 -6 123 -21 175 -31 154 -32 235 -40 419 -39 95 0 184 -3 197 -6 49 -12
10 -24 -78 -24 -179 0 -78 -8 185 -15 160 -5 267 -4 267 2 0 5 -6 15 -12 22
-11 10 -8 11 14 6 45 -11 52 4 18 37 l-31 29 -20 -22 c-10 -12 -19 -28 -19
-36 0 -14 -17 -14 -38 2 -29 22 -72 71 -72 82 0 7 -7 10 -15 7 -8 -4 -13 -9
-10 -14 6 -9 -18 -60 -28 -60 -29 0 -111 74 -104 93 2 7 18 12 36 12 26 0 29
2 16 11 -8 6 -12 14 -9 17 3 3 -5 11 -18 18 -29 15 -68 56 -60 63 3 3 -1 6 -8
6 -14 0 -110 93 -110 107 0 4 -29 37 -65 72 -64 64 -101 122 -90 141 12 20 34
9 66 -32 45 -60 360 -369 369 -363 10 6 -45 66 -82 90 -15 9 -25 21 -22 26 3
5 2 9 -3 9 -9 0 -83 66 -83 74 0 3 -25 29 -56 58 -71 67 -104 138 -64 138 6 0
76 -67 157 -148 144 -145 198 -191 209 -179 3 3 -7 12 -23 21 -16 8 -40 31
-54 50 -13 20 -28 36 -33 36 -5 0 -43 37 -85 82 -70 75 -95 123 -64 123 6 0
55 -40 109 -90 102 -95 128 -115 118 -93 -3 7 -32 36 -65 63 -33 28 -65 58
-70 68 -11 19 -6 47 8 47 5 0 44 -31 88 -70 44 -38 84 -70 90 -70 5 0 -11 18
-37 41 -33 28 -48 48 -48 65 0 40 24 29 115 -52 47 -42 89 -73 93 -69 4 4 1
10 -7 13 -32 11 -91 75 -91 98 0 29 22 32 48 6 66 -63 121 -99 72 -48 -21 23
-22 56 -2 56 5 0 26 -13 47 -30 45 -36 45 -36 38 -10 -8 32 22 35 60 6 39 -30
49 -32 41 -11 -11 27 24 28 59 1 41 -31 47 -32 47 -6 0 26 27 26 60 0 30 -24
40 -25 40 -5 0 21 23 19 64 -6 30 -17 36 -18 36 -6 0 23 22 26 50 7 37 -25 60
-32 54 -16 -10 25 16 28 52 6 33 -21 36 -21 48 -4 13 16 15 16 50 -5 35 -22
38 -22 50 -5 13 17 15 17 51 -5 34 -20 38 -20 49 -6 11 15 15 15 50 -1 30 -15
39 -16 45 -5 7 10 17 8 49 -8 46 -23 56 -26 47 -11 -12 19 23 22 56 4 23 -11
34 -13 37 -5 5 15 28 14 64 -5 25 -13 32 -13 39 -3 6 11 14 11 42 1 19 -7 42
-10 51 -6 8 3 30 1 47 -5 24 -8 36 -8 46 0 10 9 22 7 49 -7 29 -16 36 -17 43
-5 8 12 15 12 49 -2 28 -11 42 -13 50 -5 8 8 19 7 41 -1 20 -9 35 -10 47 -3
13 7 27 5 51 -6 25 -12 36 -13 45 -4 8 8 20 7 46 -4 26 -11 37 -11 43 -3 4 7
17 9 34 5 22 -6 26 -4 23 11 -2 13 -16 20 -48 24 l-45 6 47 1 47 2 -1 51 c0
47 -2 51 -29 61 -16 5 -26 14 -23 19 3 5 1 9 -4 9 -6 0 -12 -6 -15 -13 -4 -10
-38 -9 -173 5 -93 9 -216 20 -274 23 -174 11 -399 31 -405 36 -2 3 26 37 63
76 198 207 274 291 344 377 10 11 22 26 28 33 5 7 10 17 10 23 0 5 5 10 10 10
9 0 15 -21 11 -42 -2 -13 36 -9 47 4 7 9 5 23 -7 48 -16 33 -16 37 -1 53 9 9
31 22 48 28 28 9 31 14 25 40 -4 22 1 40 23 72 16 23 33 45 39 49 5 4 -4 8
-22 8 -17 0 -35 4 -38 10 -9 15 -25 12 -25 -5 0 -8 -6 -15 -14 -15 -11 0 -13
7 -6 30 7 23 5 30 -6 30 -8 0 -14 -8 -14 -18 0 -10 -6 -27 -14 -37 -12 -17
-16 -17 -31 -5 -14 12 -18 12 -25 -1 -8 -11 -13 -12 -30 -1 -17 10 -20 10 -20
-3 0 -19 -29 -20 -36 0 -4 8 -10 15 -15 15 -5 0 -9 -7 -9 -15 0 -18 -27 -20
-32 -3 -2 6 -15 13 -28 15 -24 3 -24 3 -5 -11 20 -15 20 -15 -2 -16 -13 0 -23
5 -23 10 0 6 -7 10 -15 10 -8 0 -15 -4 -15 -10 0 -5 -7 -10 -15 -10 -8 0 -15
7 -15 15 0 8 -4 15 -10 15 -5 0 -10 -7 -10 -15 0 -8 -6 -15 -14 -15 -8 0 -16
7 -20 15 -3 8 -10 15 -16 15 -5 0 -10 -7 -10 -15 0 -20 -20 -19 -36 3 -12 16
-14 16 -28 -3 -13 -19 -15 -19 -21 -2 -8 18 -35 24 -35 7 0 -16 -27 -12 -34 5
-7 19 -26 19 -26 0 0 -8 -7 -15 -15 -15 -13 0 -18 13 -18 45 0 6 37 59 82 120
46 60 90 122 99 137 9 16 20 28 24 28 4 0 8 7 8 15 0 8 4 15 8 15 4 0 23 24
41 54 25 41 39 56 59 58 24 3 27 7 24 36 -4 37 18 77 47 87 13 4 17 12 14 25
-3 11 3 32 13 47 19 29 44 73 44 79 0 1 -10 1 -22 -1 -12 -3 -27 0 -34 5 -8 7
-13 6 -18 -5 -10 -27 -27 -17 -21 13 6 26 6 26 -9 8 -8 -10 -17 -24 -19 -30
-3 -8 -11 -7 -27 2 -19 11 -24 11 -34 -4 -12 -15 -13 -15 -19 0 -8 20 -27 21
-27 1 0 -8 -5 -15 -10 -15 -6 0 -13 7 -16 15 -4 8 -10 15 -15 15 -5 0 -9 -7
-9 -15 0 -20 -26 -19 -34 1 -3 8 -10 12 -16 9 -6 -4 -8 -11 -5 -16 4 -5 0 -9
-8 -9 -8 0 -17 7 -21 15 -3 8 -10 15 -16 15 -5 0 -10 -7 -10 -15 0 -20 -17
-19 -30 3 -8 12 -13 13 -16 5 -7 -15 -34 -17 -34 -3 0 14 -27 12 -34 -2 -3 -9
-9 -7 -20 6 -16 20 -16 20 -31 0 -38 -50 -7 10 75 146 50 82 90 153 90 158 0
5 12 22 26 37 14 15 27 35 29 44 6 30 35 79 50 85 8 3 12 12 9 20 -3 8 6 35
20 61 31 55 31 55 4 50 -12 -3 -26 1 -31 8 -7 9 -10 9 -14 0 -7 -18 -24 -16
-17 2 9 22 -5 18 -26 -7 -19 -23 -19 -23 -34 -3 -14 18 -15 18 -16 3 0 -21
-11 -23 -28 -6 -10 10 -15 10 -23 -2 -8 -11 -12 -12 -16 -2 -2 6 -11 12 -18
12 -7 0 -16 -6 -19 -12 -5 -10 -7 -10 -12 0 -3 6 -12 12 -19 12 -7 0 -15 -6
-18 -12 -3 -9 -9 -7 -19 6 -15 18 -15 18 -22 0 -7 -19 -8 -19 -21 0 -12 16
-17 17 -30 6 -13 -11 -14 -10 -9 6 4 10 15 30 24 44 43 62 180 360 173 376 -4
11 -3 15 4 11 6 -4 18 9 28 31 10 20 20 41 23 46 3 5 -5 7 -17 3 -14 -3 -26 1
-36 16 -12 18 -16 19 -32 6 -10 -8 -23 -20 -29 -28 -9 -11 -12 -11 -18 5 -6
15 -9 16 -16 4 -7 -12 -11 -12 -25 0 -14 12 -18 12 -27 -1 -7 -11 -11 -11 -15
-1 -2 6 -11 12 -19 12 -9 0 -12 -4 -9 -10 3 -5 0 -10 -9 -10 -8 0 -17 6 -19
13 -4 9 -8 8 -16 -3 -9 -13 -12 -12 -25 5 -14 19 -15 19 -22 1 -7 -18 -7 -18
-21 0 -12 16 -15 17 -24 4 -8 -13 -11 -12 -24 4 -13 17 -15 17 -21 3 -8 -21
-24 -22 -24 -2 0 8 -7 15 -15 15 -8 0 -15 -4 -15 -10 0 -5 -4 -10 -10 -10 -5
0 -10 7 -10 15 0 20 -10 19 -26 -2 -13 -17 -13 -17 -14 0 0 19 -26 23 -33 5
-3 -9 -10 -7 -21 7 -13 17 -17 18 -25 5 -9 -13 -12 -12 -25 5 -9 11 -16 14
-16 8 0 -19 -21 -16 -36 5 -12 16 -13 16 -19 -1 -7 -17 -8 -17 -21 0 -12 16
-15 16 -23 3 -9 -13 -12 -12 -25 5 -13 17 -17 18 -25 5 -9 -13 -12 -12 -25 5
-14 17 -17 18 -26 5 -9 -13 -12 -13 -21 3 -8 15 -14 16 -25 6 -12 -10 -17 -8
-29 7 -13 19 -14 19 -21 0 -7 -18 -8 -18 -21 0 -10 14 -16 15 -25 6 -9 -9 -14
-7 -24 6 -12 15 -15 15 -23 2 -9 -13 -12 -12 -25 5 -13 17 -17 18 -25 5 -9
-13 -12 -12 -25 5 -13 17 -17 18 -25 5 -9 -13 -12 -12 -25 5 -14 17 -17 18
-26 5 -7 -11 -10 0 -11 40 -1 30 -3 62 -4 70 -1 8 -3 34 -4 58 0 26 -5 41 -11
37 -5 -3 -10 -1 -10 4 0 6 5 11 10 11 6 0 10 9 10 20 0 11 -4 20 -8 20 -4 0
-6 16 -4 36 4 29 2 35 -9 29 -11 -6 -11 -5 -2 5 18 19 4 122 -19 138 -10 7
-18 18 -18 24 0 7 6 3 14 -8 15 -19 15 -19 12 1 -2 11 1 25 6 31 9 13 -15 44
-34 44 -6 0 0 -9 13 -20z m5 -217 c-10 -10 -19 5 -10 18 6 11 8 11 12 0 2 -7
1 -15 -2 -18z m14 -43 c0 -5 -10 -10 -22 -10 -19 0 -20 2 -8 10 19 13 30 13
30 0z m-950 -60 c8 -5 11 -10 5 -10 -5 0 -17 5 -25 10 -8 5 -10 10 -5 10 6 0
17 -5 25 -10z m950 0 c0 -5 -7 -10 -15 -10 -8 0 -15 5 -15 10 0 6 7 10 15 10
8 0 15 -4 15 -10z m-840 -42 c10 -6 7 -7 -10 -2 -14 3 -32 11 -40 16 -10 6 -7
7 10 2 14 -3 32 -11 40 -16z m-112 -15 c2 -14 -4 -22 -17 -26 -18 -4 -21 0
-21 23 0 21 4 28 18 26 9 -2 18 -12 20 -23z m952 -3 c0 -5 -7 -10 -15 -10 -8
0 -15 5 -15 10 0 6 7 10 15 10 8 0 15 -4 15 -10z m-655 -40 c13 -5 14 -9 5 -9
-8 0 -24 4 -35 9 -13 5 -14 9 -5 9 8 0 24 -4 35 -9z m110 -31 c14 -6 9 -7 -15
-3 -19 4 -44 11 -55 15 -14 6 -9 7 15 3 19 -4 44 -11 55 -15z m545 11 c0 -5
-7 -10 -15 -10 -8 0 -15 5 -15 10 0 6 7 10 15 10 8 0 15 -4 15 -10z m-993 -52
c-2 -13 -4 -5 -4 17 -1 22 1 32 4 23 2 -10 2 -28 0 -40z m43 33 c0 -11 -4 -22
-9 -25 -5 -3 -8 6 -8 19 0 14 3 25 8 25 5 0 9 -9 9 -19z m457 -7 c-3 -3 -12
-4 -19 -1 -8 3 -5 6 6 6 11 1 17 -2 13 -5z m-426 -47 c-8 -8 -11 -7 -11 4 0
20 13 34 18 19 3 -7 -1 -17 -7 -23z m166 11 c-3 -8 -6 -5 -6 6 -1 11 2 17 5
13 3 -3 4 -12 1 -19z m38 -18 c-4 -12 -9 -19 -12 -17 -3 3 -2 15 2 27 4 12 9
19 12 17 3 -3 2 -15 -2 -27z m352 24 c-3 -3 -12 -4 -19 -1 -8 3 -5 6 6 6 11 1
17 -2 13 -5z m213 -9 c0 -8 -4 -15 -9 -15 -13 0 -22 16 -14 24 11 11 23 6 23
-9z m160 7 c0 -14 -11 -21 -26 -15 -8 3 -11 9 -8 14 7 11 34 12 34 1z m-685
-32 c-4 -12 -9 -19 -12 -17 -3 3 -2 15 2 27 4 12 9 19 12 17 3 -3 2 -15 -2
-27z m36 -11 c-9 -22 -10 -22 -10 -3 -1 11 2 24 6 27 12 12 14 0 4 -24z m366
25 c-3 -3 -12 -4 -19 -1 -8 3 -5 6 6 6 11 1 17 -2 13 -5z m-326 -31 c-8 -15
-10 -15 -11 -2 0 17 10 32 18 25 2 -3 -1 -13 -7 -23z m376 21 c-3 -3 -12 -4
-19 -1 -8 3 -5 6 6 6 11 1 17 -2 13 -5z m-788 -113 c-7 -56 -14 -99 -17 -97
-2 3 1 50 8 106 7 56 14 99 17 96 2 -2 -1 -50 -8 -105z m454 89 c-3 -11 -7
-20 -9 -20 -2 0 -4 9 -4 20 0 11 4 20 9 20 5 0 7 -9 4 -20z m-403 6 c0 -3 -4
-8 -10 -11 -5 -3 -10 -1 -10 4 0 6 5 11 10 11 6 0 10 -2 10 -4z m140 -16 c0
-11 -7 -20 -15 -20 -15 0 -21 21 -8 33 12 13 23 7 23 -13z m297 -2 c-3 -8 -6
-5 -6 6 -1 11 2 17 5 13 3 -3 4 -12 1 -19z m400 16 c-3 -3 -12 -4 -19 -1 -8 3
-5 6 6 6 11 1 17 -2 13 -5z m-837 -28 c0 -3 -4 -8 -10 -11 -5 -3 -10 -1 -10 4
0 6 5 11 10 11 6 0 10 -2 10 -4z m997 -2 c-3 -3 -12 -4 -19 -1 -8 3 -5 6 6 6
11 1 17 -2 13 -5z m-1007 -34 c0 -5 -5 -10 -11 -10 -5 0 -7 5 -4 10 3 6 8 10
11 10 2 0 4 -4 4 -10z m1217 -6 c-3 -3 -12 -4 -19 -1 -8 3 -5 6 6 6 11 1 17
-2 13 -5z m60 -10 c-3 -3 -12 -4 -19 -1 -8 3 -5 6 6 6 11 1 17 -2 13 -5z
m-1277 -8 c0 -3 -4 -8 -10 -11 -5 -3 -10 -1 -10 4 0 6 5 11 10 11 6 0 10 -2
10 -4z m314 -11 c-4 -8 -8 -15 -10 -15 -2 0 -4 7 -4 15 0 8 4 15 10 15 5 0 7
-7 4 -15z m1023 9 c-3 -3 -12 -4 -19 -1 -8 3 -5 6 6 6 11 1 17 -2 13 -5z
m-990 -26 c-3 -8 -6 -5 -6 6 -1 11 2 17 5 13 3 -3 4 -12 1 -19z m1050 16 c-3
-3 -12 -4 -19 -1 -8 3 -5 6 6 6 11 1 17 -2 13 -5z m60 -10 c-3 -3 -12 -4 -19
-1 -8 3 -5 6 6 6 11 1 17 -2 13 -5z m60 -10 c-3 -3 -12 -4 -19 -1 -8 3 -5 6 6
6 11 1 17 -2 13 -5z m60 -10 c-3 -3 -12 -4 -19 -1 -8 3 -5 6 6 6 11 1 17 -2
13 -5z m-1587 -18 c0 -3 -4 -8 -10 -11 -5 -3 -10 -1 -10 4 0 6 5 11 10 11 6 0
10 -2 10 -4z m1723 -3 c-7 -2 -19 -2 -25 0 -7 3 -2 5 12 5 14 0 19 -2 13 -5z
m115 -10 c-10 -2 -28 -2 -40 0 -13 2 -5 4 17 4 22 1 32 -1 23 -4z m120 -10
c-16 -2 -40 -2 -55 0 -16 2 -3 4 27 4 30 0 43 -2 28 -4z m-1958 -7 c0 -3 -4
-8 -10 -11 -5 -3 -10 -1 -10 4 0 6 5 11 10 11 6 0 10 -2 10 -4z m-10 -36 c0
-5 -2 -10 -4 -10 -3 0 -8 5 -11 10 -3 6 -1 10 4 10 6 0 11 -4 11 -10z m330
-10 c0 -5 -5 -10 -11 -10 -5 0 -7 5 -4 10 3 6 8 10 11 10 2 0 4 -4 4 -10z
m-315 -96 c58 -20 104 -38 102 -40 -2 -2 -50 12 -107 31 -57 19 -105 35 -107
35 -2 0 -3 -9 -3 -20 0 -11 7 -20 15 -20 21 0 19 -37 -3 -49 -15 -8 -20 -33
-31 -146 -7 -75 -15 -134 -18 -131 -3 2 2 83 11 179 9 97 16 180 16 186 0 16
11 14 125 -25z m355 12 c0 -8 -4 -18 -10 -21 -5 -3 -10 3 -10 14 0 12 5 21 10
21 6 0 10 -6 10 -14z m1637 -38 c-3 -8 -6 -5 -6 6 -1 11 2 17 5 13 3 -3 4 -12
1 -19z m-1817 -33 c19 -7 28 -13 20 -13 -8 0 -31 6 -50 13 -19 7 -28 13 -20
13 8 0 31 -6 50 -13z m85 -25 c13 -5 14 -9 5 -9 -8 0 -24 4 -35 9 -13 5 -14 9
-5 9 8 0 24 -4 35 -9z m52 -16 c-3 -3 -12 -4 -19 -1 -8 3 -5 6 6 6 11 1 17 -2
13 -5z m40 -10 c-3 -3 -12 -4 -19 -1 -8 3 -5 6 6 6 11 1 17 -2 13 -5z m73 -14
c20 -6 21 -8 5 -8 -11 0 -31 4 -45 8 -20 6 -21 8 -5 8 11 0 31 -4 45 -8z
m-290 -24 c0 -8 -4 -18 -10 -21 -5 -3 -10 3 -10 14 0 12 5 21 10 21 6 0 10 -6
10 -14z m347 8 c-3 -3 -12 -4 -19 -1 -8 3 -5 6 6 6 11 1 17 -2 13 -5z m-519
-21 c-2 -9 -8 -18 -15 -20 -7 -3 -9 3 -6 16 6 25 26 28 21 4z m203 -20 c-10
-17 -10 -16 -11 3 0 23 13 41 18 25 2 -6 -1 -18 -7 -28z m366 31 c-3 -3 -12
-4 -19 -1 -8 3 -5 6 6 6 11 1 17 -2 13 -5z m-326 -47 c-13 -13 -15 1 -4 30 7
17 8 17 11 -1 2 -10 -1 -23 -7 -29z m372 36 c-7 -2 -19 -2 -25 0 -7 3 -2 5 12
5 14 0 19 -2 13 -5z m54 -9 c-3 -3 -12 -4 -19 -1 -8 3 -5 6 6 6 11 1 17 -2 13
-5z m-377 -19 c0 -8 -4 -15 -10 -15 -5 0 -7 7 -4 15 4 8 8 15 10 15 2 0 4 -7
4 -15z m29 -29 c-9 -8 -10 -7 -5 7 3 10 7 24 7 30 1 7 3 4 6 -7 3 -10 -1 -23
-8 -30z m404 37 c-7 -2 -19 -2 -25 0 -7 3 -2 5 12 5 14 0 19 -2 13 -5z m50
-10 c-7 -2 -19 -2 -25 0 -7 3 -2 5 12 5 14 0 19 -2 13 -5z m-692 -46 c-7 -7
-12 -5 -17 7 -4 11 -1 21 7 27 17 11 26 -18 10 -34z m289 28 c0 -8 -4 -15 -10
-15 -5 0 -7 7 -4 15 4 8 8 15 10 15 2 0 4 -7 4 -15z m463 8 c-7 -2 -19 -2 -25
0 -7 3 -2 5 12 5 14 0 19 -2 13 -5z m-426 -25 c-3 -8 -6 -5 -6 6 -1 11 2 17 5
13 3 -3 4 -12 1 -19z m480 16 c-3 -3 -12 -4 -19 -1 -8 3 -5 6 6 6 11 1 17 -2
13 -5z m-433 -19 c-4 -8 -8 -15 -10 -15 -2 0 -4 7 -4 15 0 8 4 15 10 15 5 0 7
-7 4 -15z m37 -12 c-8 -15 -10 -15 -11 -2 0 17 10 32 18 25 2 -3 -1 -13 -7
-23z m456 21 c-3 -3 -12 -4 -19 -1 -8 3 -5 6 6 6 11 1 17 -2 13 -5z m-1007 -8
c0 -3 -4 -8 -10 -11 -5 -3 -10 -1 -10 4 0 6 5 11 10 11 6 0 10 -2 10 -4z m591
-19 c-10 -9 -11 -8 -5 6 3 10 9 15 12 12 3 -3 0 -11 -7 -18z m472 16 c-7 -2
-19 -2 -25 0 -7 3 -2 5 12 5 14 0 19 -2 13 -5z m54 -9 c-3 -3 -12 -4 -19 -1
-8 3 -5 6 6 6 11 1 17 -2 13 -5z m120 -20 c-3 -3 -12 -4 -19 -1 -8 3 -5 6 6 6
11 1 17 -2 13 -5z m60 -10 c-3 -3 -12 -4 -19 -1 -8 3 -5 6 6 6 11 1 17 -2 13
-5z m-976 -37 c-8 -8 -11 -7 -11 4 0 20 13 34 18 19 3 -7 -1 -17 -7 -23z m43
-2 c-4 -8 -8 -15 -10 -15 -2 0 -4 7 -4 15 0 8 4 15 10 15 5 0 7 -7 4 -15z m77
-22 c-12 -20 -14 -14 -5 12 4 9 9 14 11 11 3 -2 0 -13 -6 -23z m40 -10 c-12
-20 -14 -14 -5 12 4 9 9 14 11 11 3 -2 0 -13 -6 -23z m1146 21 c-3 -3 -12 -4
-19 -1 -8 3 -5 6 6 6 11 1 17 -2 13 -5z m-1106 -27 c-10 -9 -11 -8 -5 6 3 10
9 15 12 12 3 -3 0 -11 -7 -18z m1172 16 c-7 -2 -19 -2 -25 0 -7 3 -2 5 12 5
14 0 19 -2 13 -5z m150 -20 c-7 -2 -19 -2 -25 0 -7 3 -2 5 12 5 14 0 19 -2 13
-5z m-1906 -55 c-2 -13 -4 -5 -4 17 -1 22 1 32 4 23 2 -10 2 -28 0 -40z m2086
35 c-7 -2 -21 -2 -30 0 -10 3 -4 5 12 5 17 0 24 -2 18 -5z m-2043 -7 c0 -3 -4
-8 -10 -11 -5 -3 -10 -1 -10 4 0 6 5 11 10 11 6 0 10 -2 10 -4z m2193 -3 c-13
-2 -35 -2 -50 0 -16 2 -5 4 22 4 28 0 40 -2 28 -4z m180 0 c-7 -2 -19 -2 -25
0 -7 3 -2 5 12 5 14 0 19 -2 13 -5z m70 0 c-7 -2 -21 -2 -30 0 -10 3 -4 5 12
5 17 0 24 -2 18 -5z m-2103 -48 c0 -8 -4 -15 -10 -15 -5 0 -10 7 -10 15 0 8 5
15 10 15 6 0 10 -7 10 -15z m-393 -52 c-3 -10 -5 -2 -5 17 0 19 2 27 5 18 2
-10 2 -26 0 -35z m43 23 c0 -3 -4 -8 -10 -11 -5 -3 -10 -1 -10 4 0 6 5 11 10
11 6 0 10 -2 10 -4z m-7 -46 c-3 -11 -7 -20 -9 -20 -2 0 -4 9 -4 20 0 11 4 20
9 20 5 0 7 -9 4 -20z m-47 -16 c-3 -9 -6 -20 -6 -25 0 -6 -4 -7 -10 -4 -16 10
-12 45 6 45 11 0 14 -5 10 -16z m452 -1 c-5 -25 -28 -28 -28 -4 0 12 6 21 16
21 9 0 14 -7 12 -17z m1869 -45 c-3 -8 -6 -5 -6 6 -1 11 2 17 5 13 3 -3 4 -12
1 -19z m-2142 -86 c-2 -2 -52 12 -112 31 -59 19 -118 38 -130 41 -20 6 -23 4
-23 -18 0 -16 6 -26 15 -26 23 0 19 -41 -4 -47 -14 -4 -21 -16 -24 -42 -3 -20
-3 4 -1 52 2 49 6 92 8 96 3 4 66 -13 140 -38 74 -25 133 -47 131 -49z m635
64 c0 -3 -4 -8 -10 -11 -5 -3 -10 -1 -10 4 0 6 5 11 10 11 6 0 10 -2 10 -4z
m-495 -95 c61 -16 104 -30 97 -30 -15 -1 -215 48 -221 55 -8 8 15 3 124 -25z
m142 -37 c-3 -3 -12 -4 -19 -1 -8 3 -5 6 6 6 11 1 17 -2 13 -5z m-307 -18 c0
-3 -4 -8 -10 -11 -5 -3 -10 -1 -10 4 0 6 5 11 10 11 6 0 10 -2 10 -4z m-210
-10 c0 -3 -4 -8 -10 -11 -5 -3 -10 -1 -10 4 0 6 5 11 10 11 6 0 10 -2 10 -4z
m247 -18 c-3 -8 -6 -5 -6 6 -1 11 2 17 5 13 3 -3 4 -12 1 -19z m49 -25 c-11
-11 -17 4 -9 23 7 18 8 18 11 1 2 -10 1 -21 -2 -24z m-351 -63 c-4 -45 -9 -79
-12 -76 -2 2 -1 41 3 85 3 45 9 80 11 77 3 -3 2 -41 -2 -86z m105 76 c0 -15
-18 -31 -26 -23 -7 7 7 37 17 37 5 0 9 -6 9 -14z m723 7 c-7 -2 -19 -2 -25 0
-7 3 -2 5 12 5 14 0 19 -2 13 -5z m-432 -30 c-8 -15 -10 -15 -11 -2 0 17 10
32 18 25 2 -3 -1 -13 -7 -23z m492 20 c-7 -2 -21 -2 -30 0 -10 3 -4 5 12 5 17
0 24 -2 18 -5z m-439 -18 c-4 -8 -8 -15 -10 -15 -2 0 -4 7 -4 15 0 8 4 15 10
15 5 0 7 -7 4 -15z m563 -1 c-3 -3 -12 -4 -19 -1 -8 3 -5 6 6 6 11 1 17 -2 13
-5z m-470 -26 c-3 -8 -6 -5 -6 6 -1 11 2 17 5 13 3 -3 4 -12 1 -19z m526 15
c-7 -2 -19 -2 -25 0 -7 3 -2 5 12 5 14 0 19 -2 13 -5z m-846 -37 c-4 -9 -11
-16 -16 -16 -15 0 -23 33 -9 41 17 11 32 -5 25 -25z m200 -68 c-3 -8 -6 -5 -6
6 -1 11 2 17 5 13 3 -3 4 -12 1 -19z m1763 -8 c0 -5 -5 -10 -11 -10 -5 0 -7 5
-4 10 3 6 8 10 11 10 2 0 4 -4 4 -10z m-207 -17 c-7 -2 -19 -2 -25 0 -7 3 -2
5 12 5 14 0 19 -2 13 -5z m-1996 -60 c-3 -10 -5 -2 -5 17 0 19 2 27 5 18 2
-10 2 -26 0 -35z m2340 21 c-3 -3 -12 -4 -19 -1 -8 3 -5 6 6 6 11 1 17 -2 13
-5z m40 0 c-3 -3 -12 -4 -19 -1 -8 3 -5 6 6 6 11 1 17 -2 13 -5z m496 -1 c-7
-2 -21 -2 -30 0 -10 3 -4 5 12 5 17 0 24 -2 18 -5z m-355 -10 c-16 -2 -40 -2
-55 0 -16 2 -3 4 27 4 30 0 43 -2 28 -4z m65 0 c-7 -2 -19 -2 -25 0 -7 3 -2 5
12 5 14 0 19 -2 13 -5z m70 0 c-7 -2 -21 -2 -30 0 -10 3 -4 5 12 5 17 0 24 -2
18 -5z m114 0 c-20 -2 -52 -2 -70 0 -17 2 0 4 38 4 39 0 53 -2 32 -4z m-2782
-103 c-4 -34 -9 -59 -12 -57 -2 3 -1 33 3 66 4 34 9 60 11 57 3 -3 2 -32 -2
-66z m455 36 c0 -3 -4 -8 -10 -11 -5 -3 -10 -1 -10 4 0 6 5 11 10 11 6 0 10
-2 10 -4z m-423 -53 c-3 -10 -5 -4 -5 12 0 17 2 24 5 18 2 -7 2 -21 0 -30z
m-5 -53 c-2 -16 -6 -30 -8 -30 -2 0 -4 14 -4 30 0 17 4 30 8 30 5 0 7 -13 4
-30z m476 8 c-4 -27 -28 -36 -28 -10 0 20 8 32 22 32 5 0 8 -10 6 -22z m-521
-55 c-3 -10 -5 -2 -5 17 0 19 2 27 5 18 2 -10 2 -26 0 -35z m2670 25 c-3 -8
-6 -5 -6 6 -1 11 2 17 5 13 3 -3 4 -12 1 -19z m-2635 -48 c-2 -16 -6 -30 -8
-30 -2 0 -4 14 -4 30 0 17 4 30 8 30 5 0 7 -13 4 -30z m-2 -44 c0 -3 -4 -8
-10 -11 -5 -3 -10 -1 -10 4 0 6 5 11 10 11 6 0 10 -2 10 -4z m195 -122 c72
-18 121 -33 110 -34 -25 0 -299 72 -379 99 -79 28 -96 27 -96 -4 0 -18 5 -25
20 -25 29 0 26 -37 -5 -66 l-25 -23 0 69 c0 37 2 75 5 82 4 11 30 5 123 -25
64 -22 176 -55 247 -73z m-95 96 c0 -5 -2 -10 -4 -10 -3 0 -8 5 -11 10 -3 6
-1 10 4 10 6 0 11 -4 11 -10z m257 -136 c-3 -3 -12 -4 -19 -1 -8 3 -5 6 6 6
11 1 17 -2 13 -5z m56 -11 c-7 -2 -19 -2 -25 0 -7 3 -2 5 12 5 14 0 19 -2 13
-5z m-303 -13 c0 -5 -2 -10 -4 -10 -3 0 -8 5 -11 10 -3 6 -1 10 4 10 6 0 11
-4 11 -10z m353 3 c-7 -2 -19 -2 -25 0 -7 3 -2 5 12 5 14 0 19 -2 13 -5z m122
-17 c39 -8 59 -14 45 -14 -14 -1 -54 5 -90 12 -36 8 -56 14 -45 14 11 1 52 -5
90 -12z m-418 -38 c-3 -8 -6 -5 -6 6 -1 11 2 17 5 13 3 -3 4 -12 1 -19z m536
15 c-7 -2 -21 -2 -30 0 -10 3 -4 5 12 5 17 0 24 -2 18 -5z m70 -10 c-7 -2 -21
-2 -30 0 -10 3 -4 5 12 5 17 0 24 -2 18 -5z m-956 -55 c-2 -13 -4 -5 -4 17 -1
22 1 32 4 23 2 -10 2 -28 0 -40z m403 42 c0 -5 -5 -10 -11 -10 -5 0 -7 5 -4
10 3 6 8 10 11 10 2 0 4 -4 4 -10z m613 3 c-7 -2 -21 -2 -30 0 -10 3 -4 5 12
5 17 0 24 -2 18 -5z m-913 -22 c0 -20 -17 -37 -27 -28 -7 8 7 47 18 47 5 0 9
-9 9 -19z m988 12 c-10 -2 -26 -2 -35 0 -10 3 -2 5 17 5 19 0 27 -2 18 -5z
m65 -10 c-7 -2 -19 -2 -25 0 -7 3 -2 5 12 5 14 0 19 -2 13 -5z m80 -10 c-7 -2
-21 -2 -30 0 -10 3 -4 5 12 5 17 0 24 -2 18 -5z m-413 -13 c0 -5 -4 -10 -10
-10 -5 0 -10 5 -10 10 0 6 5 10 10 10 6 0 10 -4 10 -10z m483 3 c-7 -2 -21 -2
-30 0 -10 3 -4 5 12 5 17 0 24 -2 18 -5z m85 -10 c-10 -2 -26 -2 -35 0 -10 3
-2 5 17 5 19 0 27 -2 18 -5z m-1133 -43 c-3 -6 -13 -10 -21 -10 -17 0 -19 37
-1 43 14 5 31 -19 22 -33z m1208 33 c-7 -2 -21 -2 -30 0 -10 3 -4 5 12 5 17 0
24 -2 18 -5z m70 -10 c-7 -2 -19 -2 -25 0 -7 3 -2 5 12 5 14 0 19 -2 13 -5z
m407 -3 c0 -5 -5 -10 -11 -10 -5 0 -7 5 -4 10 3 6 8 10 11 10 2 0 4 -4 4 -10z
m-322 -7 c-10 -2 -26 -2 -35 0 -10 3 -2 5 17 5 19 0 27 -2 18 -5z m75 -10 c-7
-2 -21 -2 -30 0 -10 3 -4 5 12 5 17 0 24 -2 18 -5z m95 -10 c-10 -2 -26 -2
-35 0 -10 3 -2 5 17 5 19 0 27 -2 18 -5z m402 -3 c0 -5 -5 -10 -11 -10 -5 0
-7 5 -4 10 3 6 8 10 11 10 2 0 4 -4 4 -10z m-2203 -62 c-2 -13 -4 -3 -4 22 0
25 2 35 4 23 2 -13 2 -33 0 -45z m1881 55 c-10 -2 -26 -2 -35 0 -10 3 -2 5 17
5 19 0 27 -2 18 -5z m382 3 c0 -3 -4 -8 -10 -11 -5 -3 -10 -1 -10 4 0 6 5 11
10 11 6 0 10 -2 10 -4z m60 -6 c0 -5 -5 -10 -11 -10 -5 0 -7 5 -4 10 3 6 8 10
11 10 2 0 4 -4 4 -10z m-362 -7 c-10 -2 -26 -2 -35 0 -10 3 -2 5 17 5 19 0 27
-2 18 -5z m422 -3 c0 -5 -5 -10 -11 -10 -5 0 -7 5 -4 10 3 6 8 10 11 10 2 0 4
-4 4 -10z m-342 -7 c-10 -2 -26 -2 -35 0 -10 3 -2 5 17 5 19 0 27 -2 18 -5z
m462 -3 c0 -5 -5 -10 -11 -10 -5 0 -7 5 -4 10 3 6 8 10 11 10 2 0 4 -4 4 -10z
m-372 -7 c-10 -2 -26 -2 -35 0 -10 3 -2 5 17 5 19 0 27 -2 18 -5z m432 -3 c0
-5 -5 -10 -11 -10 -5 0 -7 5 -4 10 3 6 8 10 11 10 2 0 4 -4 4 -10z m60 0 c0
-5 -5 -10 -11 -10 -5 0 -7 5 -4 10 3 6 8 10 11 10 2 0 4 -4 4 -10z m-402 -7
c-10 -2 -26 -2 -35 0 -10 3 -2 5 17 5 19 0 27 -2 18 -5z m100 -10 c-10 -2 -26
-2 -35 0 -10 3 -2 5 17 5 19 0 27 -2 18 -5z m90 -10 c-10 -2 -26 -2 -35 0 -10
3 -2 5 17 5 19 0 27 -2 18 -5z m100 -10 c-10 -2 -26 -2 -35 0 -10 3 -2 5 17 5
19 0 27 -2 18 -5z m842 -3 c0 -5 -17 -9 -37 -9 l-38 2 35 7 c19 4 36 8 38 9 1
0 2 -3 2 -9z m-747 -7 c-7 -2 -21 -2 -30 0 -10 3 -4 5 12 5 17 0 24 -2 18 -5z
m-2616 -65 c-2 -13 -4 -3 -4 22 0 25 2 35 4 23 2 -13 2 -33 0 -45z m2726 55
c-7 -2 -21 -2 -30 0 -10 3 -4 5 12 5 17 0 24 -2 18 -5z m44 1 c-3 -3 -12 -4
-19 -1 -8 3 -5 6 6 6 11 1 17 -2 13 -5z m496 -1 c-13 -2 -33 -2 -45 0 -13 2
-3 4 22 4 25 0 35 -2 23 -4z m-295 -10 c-15 -2 -42 -2 -60 0 -18 2 -6 4 27 4
33 0 48 -2 33 -4z m110 0 c-16 -2 -40 -2 -55 0 -16 2 -3 4 27 4 30 0 43 -2 28
-4z m59 1 c-3 -3 -12 -4 -19 -1 -8 3 -5 6 6 6 11 1 17 -2 13 -5z m-3117 -189
c-7 -53 -15 -94 -17 -91 -3 2 1 48 7 101 7 52 15 93 18 91 2 -3 -1 -48 -8
-101z m-33 58 c-3 -10 -5 -4 -5 12 0 17 2 24 5 18 2 -7 2 -21 0 -30z m-10 -70
c-3 -10 -5 -4 -5 12 0 17 2 24 5 18 2 -7 2 -21 0 -30z m574 -16 c-17 -17 -22
-2 -9 29 11 28 12 29 16 5 2 -13 -1 -28 -7 -34z m-584 -74 c-3 -10 -5 -4 -5
12 0 17 2 24 5 18 2 -7 2 -21 0 -30z m30 -55 c-2 -13 -4 -5 -4 17 -1 22 1 32
4 23 2 -10 2 -28 0 -40z m-16 -109 l-11 -34 5 34 c3 18 6 45 6 60 l2 26 4 -26
c2 -15 -1 -42 -6 -60z m-34 19 c-3 -8 -6 -5 -6 6 -1 11 2 17 5 13 3 -3 4 -12
1 -19z m426 -5 c-7 -2 -19 -2 -25 0 -7 3 -2 5 12 5 14 0 19 -2 13 -5z m-284
-32 c8 -15 6 -20 -15 -30 -20 -9 -26 -8 -30 4 -6 16 12 45 27 45 5 0 13 -8 18
-19z m431 4 c30 -7 44 -13 30 -13 -32 0 -132 25 -105 26 11 1 45 -5 75 -13z
m-405 -61 c0 -10 -8 -20 -17 -22 -18 -3 -26 27 -11 42 12 11 28 0 28 -20z
m602 -41 c10 -30 142 -211 179 -247 46 -45 89 -63 109 -46 23 19 18 2 -12 -36
-14 -20 -32 -56 -39 -82 -9 -34 -13 -40 -14 -22 l-2 25 -8 -25 c-4 -14 -8 -36
-8 -50 l0 -25 8 25 8 25 1 -26 c1 -14 14 -38 30 -53 25 -24 28 -31 18 -47 -18
-28 -33 -24 -89 28 -52 49 -168 189 -168 204 0 4 -17 34 -39 66 -21 32 -49 82
-61 111 -21 49 -22 54 -6 71 21 23 20 38 -1 44 -14 4 -12 5 5 6 13 1 22 7 22
18 0 21 29 53 47 53 7 0 16 -8 20 -17z m-136 -178 c57 -108 114 -196 187 -284
54 -66 59 -76 50 -97 -6 -13 -14 -24 -18 -24 -19 0 -60 28 -69 48 -6 12 -21
27 -34 33 -13 6 -31 24 -41 40 -9 16 -26 34 -37 39 -18 10 -73 86 -74 102 0 3
-3 10 -7 14 -5 4 -8 20 -8 35 0 15 -4 30 -9 33 -22 14 -29 119 -8 144 13 17
18 11 68 -83z m-127 -26 c16 -55 39 -118 50 -139 28 -51 109 -138 141 -150 22
-9 24 -12 13 -30 -13 -20 -68 -37 -86 -26 -5 3 -7 17 -4 31 5 27 -21 75 -41
75 -7 0 -18 -14 -26 -31 -11 -26 -17 -30 -40 -24 -35 9 -40 15 -44 52 -2 18
-10 40 -18 49 -13 16 -12 17 6 11 19 -7 19 -6 1 7 -10 8 -15 19 -12 25 4 5 1
13 -5 17 -8 4 -7 9 2 15 10 6 11 9 1 9 -9 0 -11 22 -8 88 7 156 29 163 70 21z
m889 74 c-7 -2 -21 -2 -30 0 -10 3 -4 5 12 5 17 0 24 -2 18 -5z m-337 -48 c32
-39 35 -47 23 -63 -7 -9 -15 -19 -16 -21 -8 -12 -72 86 -73 112 0 30 27 18 66
-28z m489 35 c18 -5 1 -6 -45 -3 -41 3 -77 7 -79 9 -8 7 94 2 124 -6z m142
-16 c-3 -3 -12 -4 -19 -1 -8 3 -5 6 6 6 11 1 17 -2 13 -5z m106 -11 c-7 -2
-19 -2 -25 0 -7 3 -2 5 12 5 14 0 19 -2 13 -5z m65 -10 c-10 -2 -26 -2 -35 0
-10 3 -2 5 17 5 19 0 27 -2 18 -5z m249 -19 c-3 -3 -12 -4 -19 -1 -8 3 -5 6 6
6 11 1 17 -2 13 -5z m331 -31 c-10 -2 -26 -2 -35 0 -10 3 -2 5 17 5 19 0 27
-2 18 -5z m116 -11 c2 -4 -11 -6 -30 -4 -19 2 -34 6 -34 8 0 8 59 4 64 -4z
m189 -19 c-13 -2 -33 -2 -45 0 -13 2 -3 4 22 4 25 0 35 -2 23 -4z m370 -30
c-7 -2 -21 -2 -30 0 -10 3 -4 5 12 5 17 0 24 -2 18 -5z m-1844 -128 c69 -69
128 -125 133 -125 4 0 8 -4 8 -10 0 -16 -28 -12 -73 11 -57 30 -94 61 -167
147 -51 60 -60 75 -50 87 7 8 15 15 19 15 3 0 62 -56 130 -125z m2119 106 c8
-5 -8 -6 -40 -4 -73 6 -83 11 -23 12 28 0 56 -3 63 -8z m-2298 -50 c0 -14 -18
-23 -30 -16 -6 4 -8 11 -5 16 8 12 35 12 35 0z m-40 -35 c0 -3 -4 -8 -10 -11
-5 -3 -10 -1 -10 4 0 6 5 11 10 11 6 0 10 -2 10 -4z m122 -163 c18 -15 34 -28
36 -29 1 -1 -3 -13 -9 -27 l-12 -26 -43 30 c-45 31 -53 46 -32 67 17 17 22 15
60 -15z m165 -30 c41 -26 41 -27 27 -55 -8 -15 -19 -28 -24 -28 -5 0 -28 18
-50 40 -34 34 -40 44 -30 55 17 21 30 19 77 -12z m193 -134 c0 -5 -28 -8 -62
-8 -50 1 -56 3 -28 8 53 9 90 9 90 0z"/>
<path d="M2040 3959 c0 -5 5 -7 10 -4 6 3 10 8 10 11 0 2 -4 4 -10 4 -5 0 -10
-5 -10 -11z"/>
<path d="M2036 3813 c-6 -14 -5 -15 5 -6 7 7 10 15 7 18 -3 3 -9 -2 -12 -12z"/>
<path d="M2046 3774 c-24 -23 -19 -27 9 -8 14 9 25 18 25 20 0 10 -20 3 -34
-12z"/>
<path d="M2068 3734 c-21 -13 -38 -30 -38 -37 1 -8 5 -6 13 4 7 9 22 19 34 23
22 7 53 36 37 35 -5 0 -26 -11 -46 -25z"/>
<path d="M2069 3680 c-20 -11 -40 -27 -43 -37 -6 -16 -6 -16 12 0 10 9 22 17
26 17 4 0 19 9 33 20 32 25 19 25 -28 0z"/>
<path d="M2090 3635 c-7 -9 -15 -13 -18 -10 -9 8 -52 -37 -52 -54 0 -11 4 -10
15 6 8 11 25 23 37 26 13 4 29 15 36 27 14 23 0 27 -18 5z"/>
<path d="M546 853 c-14 -14 -5 -51 14 -56 27 -7 28 -63 1 -72 -17 -5 -20 -20
-25 -123 -9 -153 -25 -398 -31 -439 -3 -25 0 -33 12 -33 10 0 13 6 9 16 -9 22
10 43 34 37 22 -6 16 -33 -9 -33 -9 0 -1 -8 18 -17 24 -12 38 -14 50 -6 19 12
120 11 140 -2 10 -5 12 -4 7 3 -4 7 -1 12 8 12 9 0 16 -6 16 -13 0 -9 12 -14
30 -15 19 0 30 4 30 13 0 22 28 26 35 4 9 -27 16 -18 26 28 l8 38 -2 -37 c-3
-38 -3 -38 35 -38 41 0 48 12 22 41 -15 16 -43 120 -44 160 0 12 18 22 65 34
75 21 82 31 10 15 -54 -12 -91 -6 -65 10 10 7 11 10 3 10 -24 0 -13 20 15 26
72 16 104 26 99 30 -2 3 -25 0 -50 -6 -25 -7 -53 -10 -63 -7 -17 3 -16 5 6 15
24 10 24 11 3 11 -26 1 -39 17 -19 24 7 3 34 9 60 12 70 11 63 21 -10 17 -82
-5 -86 13 -4 23 81 9 90 27 12 23 -70 -3 -93 8 -36 17 72 11 84 15 84 26 0 8
-16 9 -49 5 -27 -4 -52 -2 -55 3 -6 9 39 21 80 21 15 0 24 6 24 16 0 12 -6 15
-22 11 -13 -3 -40 -9 -60 -12 -27 -5 -38 -13 -42 -29 -3 -13 -4 -10 -3 9 1 17
-2 36 -7 43 -12 19 2 28 17 10 10 -12 22 -13 65 -6 74 13 68 32 -7 24 -38 -4
-62 -3 -66 4 -3 6 3 10 16 10 39 0 99 23 99 38 0 10 -7 13 -22 8 -47 -13 -103
-18 -89 -8 16 12 7 17 -44 27 -22 4 -91 21 -155 40 -151 42 -166 46 -174 38z
m144 -123 c0 -5 -4 -10 -10 -10 -5 0 -10 5 -10 10 0 6 5 10 10 10 6 0 10 -4
10 -10z m76 -25 c10 -8 15 -14 9 -14 -5 0 -19 6 -29 14 -11 8 -15 15 -10 15 6
0 19 -7 30 -15z m44 1 c0 -3 -4 -8 -10 -11 -5 -3 -10 -1 -10 4 0 6 5 11 10 11
6 0 10 -2 10 -4z m66 -26 c8 0 14 -7 14 -15 0 -19 -19 -19 -26 0 -4 10 -14 13
-30 9 -14 -4 -24 -2 -24 4 0 12 43 21 48 10 2 -5 10 -8 18 -8z m-236 -84 c0
-22 -25 -54 -35 -44 -8 7 16 68 26 68 5 0 9 -11 9 -24z m190 -41 c0 -23 -5
-35 -14 -35 -19 0 -31 51 -14 61 23 15 28 10 28 -26z m-258 -107 c2 -21 0 -38
-4 -38 -4 0 -7 24 -7 53 1 54 5 49 11 -15z m-15 -143 c-2 -53 -8 -99 -12 -103
-4 -4 -5 25 -1 63 3 39 6 85 6 103 0 17 3 32 6 32 3 0 4 -43 1 -95z m370 -62
c-3 -10 -5 -4 -5 12 0 17 2 24 5 18 2 -7 2 -21 0 -30z"/>
<path d="M2514 512 c8 -13 66 -56 66 -49 0 3 -17 17 -37 33 -20 15 -33 23 -29
16z"/>
<path d="M2630 490 c0 -5 5 -10 11 -10 5 0 7 5 4 10 -3 6 -8 10 -11 10 -2 0
-4 -4 -4 -10z"/>
<path d="M2330 486 c0 -2 8 -10 18 -17 15 -13 16 -12 3 4 -13 16 -21 21 -21
13z"/>
<path d="M2370 461 c0 -11 40 -45 75 -65 30 -17 30 -17 5 1 -14 10 -37 30 -52
45 -16 14 -28 23 -28 19z"/>
<path d="M2290 438 c0 -3 14 -17 30 -33 17 -16 30 -24 30 -18 0 7 -13 21 -30
33 -16 12 -30 20 -30 18z"/>
<path d="M2540 406 c0 -3 9 -10 20 -16 11 -6 20 -8 20 -6 0 3 -9 10 -20 16
-11 6 -20 8 -20 6z"/>
<path d="M2395 346 c17 -14 34 -26 39 -26 11 0 11 0 -34 29 l-35 23 30 -26z"/>
<path d="M1066 352 c-3 -5 1 -9 9 -9 8 0 12 4 9 9 -3 4 -7 8 -9 8 -2 0 -6 -4
-9 -8z"/>
<path d="M2490 356 c0 -3 9 -10 20 -16 11 -6 20 -8 20 -6 0 3 -9 10 -20 16
-11 6 -20 8 -20 6z"/>
<path d="M2350 288 c19 -13 41 -29 48 -38 11 -13 11 -13 6 2 -6 17 -63 58 -80
58 -5 0 7 -10 26 -22z"/>
<path d="M2727 269 c7 -7 15 -10 18 -7 3 3 -2 9 -12 12 -14 6 -15 5 -6 -5z"/>
<path d="M2527 239 c7 -7 15 -10 18 -7 3 3 -2 9 -12 12 -14 6 -15 5 -6 -5z"/>
<path d="M2337 209 c7 -7 15 -10 18 -7 3 3 -2 9 -12 12 -14 6 -15 5 -6 -5z"/>
<path d="M1125 153 c-16 -16 -20 -53 -6 -53 5 0 14 6 20 14 10 11 19 12 42 4
16 -6 61 -8 99 -5 68 5 80 1 61 -18 -6 -6 26 -11 87 -13 53 -2 94 -1 91 3 -4
3 -90 23 -193 44 -164 34 -188 37 -201 24z"/>
<path d="M2572 128 c-18 -18 -14 -38 6 -39 54 -4 70 12 34 34 -22 12 -32 13
-40 5z"/>
<path d="M2723 98 c2 -7 9 -13 15 -12 7 1 22 2 35 3 18 1 19 3 7 11 -22 14
-62 12 -57 -2z"/>
<path d="M688 93 c7 -3 16 -2 19 1 4 3 -2 6 -13 5 -11 0 -14 -3 -6 -6z"/>
<path d="M1295 90 c-3 -5 1 -10 10 -10 9 0 13 5 10 10 -3 6 -8 10 -10 10 -2 0
-7 -4 -10 -10z"/>
<path d="M2863 75 l-21 -25 29 -1 c16 -1 42 -2 58 -3 30 -1 30 5 3 37 -21 24
-43 21 -69 -8z"/>
<path d="M1543 83 c9 -2 23 -2 30 0 6 3 -1 5 -18 5 -16 0 -22 -2 -12 -5z"/>
<path d="M3032 78 c-18 -18 -15 -45 6 -43 28 2 55 21 48 34 -4 6 -12 9 -17 6
-5 -4 -9 -1 -9 4 0 14 -13 14 -28 -1z"/>
<path d="M2485 69 c-35 -5 -32 -6 23 -8 45 -1 64 -5 68 -16 7 -18 34 -20 34
-2 0 9 13 11 43 9 23 -3 38 0 34 4 -11 12 -152 21 -202 13z"/>
<path d="M2715 60 c7 -12 102 -14 109 -1 3 4 -22 9 -55 10 -40 1 -58 -2 -54
-9z"/>
<path d="M3191 61 c-17 -11 -1 -21 25 -16 10 2 21 4 24 4 6 1 -23 21 -30 21
-3 0 -11 -4 -19 -9z"/>
<path d="M3350 50 c0 -5 4 -10 9 -10 6 0 13 5 16 10 3 6 -1 10 -9 10 -9 0 -16
-4 -16 -10z"/>
</g>
</svg>
